<svg width="31" height="31" viewBox="0 0 31 31" fill="none" xmlns="http://www.w3.org/2000/svg">
<g clip-path="url(#clip0)">
<path d="M11.3547 30.8947C6.88981 30.8689 3.19653 21.7546 3.19653 17.1128C3.19653 9.53057 8.88452 7.87061 11.0766 7.87061C12.0645 7.87061 13.1194 8.25856 14.0498 8.60186C14.7004 8.84133 15.3733 9.08854 15.7475 9.08854C15.9716 9.08854 16.4994 8.87825 16.9655 8.69374C17.9594 8.29805 19.1962 7.80627 20.6364 7.80627C20.639 7.80627 20.6425 7.80627 20.645 7.80627C21.7204 7.80627 24.9812 8.04229 26.9415 10.9863L27.4007 11.6763L26.7399 12.175C25.7957 12.8874 24.0731 14.1869 24.0731 16.761C24.0731 19.8097 26.024 20.9821 26.9613 21.546C27.375 21.7949 27.8033 22.0516 27.8033 22.6129C27.8033 22.9794 24.8782 30.8492 20.6304 30.8492C19.591 30.8492 18.8563 30.5368 18.2083 30.2613C17.5525 29.9823 16.9869 29.742 16.0522 29.742C15.5784 29.742 14.9793 29.966 14.345 30.2038C13.4782 30.5273 12.4971 30.8947 11.3839 30.8947H11.3547Z" fill="#295CCF"/>
<path d="M21.0864 0.894653C21.1971 4.88348 18.3444 7.65075 15.4951 7.47719C15.0256 4.29397 18.3441 0.894653 21.0864 0.894653Z" fill="#295CCF"/>
</g>
<defs>
<clipPath id="clip0">
<rect width="30" height="30" fill="white" transform="translate(0.499939 0.894653)"/>
</clipPath>
</defs>
</svg>
