<svg width="59" height="60" viewBox="0 0 59 60" fill="none" xmlns="http://www.w3.org/2000/svg">
<path d="M45.8117 59.3458H12.9906C5.81668 59.3458 0 53.5183 0 46.3444V13.5233C0 6.34939 5.81668 0.532715 12.9906 0.532715H45.8117C52.9856 0.532715 58.8131 6.34939 58.8131 13.5233V46.3444C58.8131 53.5183 52.9856 59.3458 45.8117 59.3458Z" fill="#F4F9FF"/>
<path d="M30.1281 46.9801C39.2658 46.9801 46.6733 39.5725 46.6733 30.4349C46.6733 21.2972 39.2658 13.8896 30.1281 13.8896C20.9905 13.8896 13.5829 21.2972 13.5829 30.4349C13.5829 39.5725 20.9905 46.9801 30.1281 46.9801Z" stroke="#081D34" stroke-width="2.27547" stroke-miterlimit="10"/>
<path d="M28.5528 11.2189C28.496 10.9991 28.4476 10.7812 28.4051 10.5621C28.5564 10.7555 28.7102 10.9421 28.863 11.1204C29.2311 11.5498 29.6362 11.9544 30.0373 12.3154C30.2288 12.4878 30.5257 12.7232 30.8318 12.9521L29.4964 13.832C29.3403 13.5178 29.2039 13.2017 29.0771 12.8847C28.8627 12.3304 28.7 11.7895 28.5528 11.2189Z" fill="#081D34" stroke="#081D34" stroke-width="1.51698"/>
<path d="M29.0116 13.2323L31.3252 14.9086C30.4922 15.4596 29.6083 16.1642 29.0223 16.7363C28.6098 17.139 28.2288 17.5931 27.895 18.0984C27.8798 17.5217 27.9248 16.9251 28.0305 16.3235C28.2149 15.2734 28.5468 14.24 29.0116 13.2323Z" fill="#081D34" stroke="#081D34" stroke-width="1.51698"/>
<path d="M25.7981 37.5554C25.5934 37.954 25.044 37.9971 24.7748 37.6416C23.1159 35.455 20.52 32.4497 19.8306 31.6741C19.055 30.8016 20.186 30.0153 21.2524 30.4354C22.3188 30.8555 24.0746 31.9649 24.5916 31.9649C25.1087 31.9649 31.6147 24.3171 33.9522 23.6708C36.2789 23.0245 35.0186 24.5756 34.2107 25.4804C30.7853 29.3151 27.0799 35.0995 25.7981 37.5554Z" fill="#081D34"/>
<path d="M40.5381 25.5986C36.647 29.4332 32.4378 35.2176 30.9939 37.6628C30.7614 38.0613 30.1374 38.1044 29.8315 37.7489C28.8893 36.661 27.6902 35.3684 26.6256 34.2589C27.213 33.4618 27.8493 32.6001 28.5345 31.7276C29.0117 31.9323 29.4032 32.0723 29.6113 32.0723C30.1986 32.0723 37.5892 24.4352 40.2444 23.7781C42.8874 23.1426 41.4558 24.6937 40.5381 25.5986Z" fill="#081D34"/>
</svg>
